<?xml version="1.0" encoding="UTF-8"?>
<svg width="24" height="24" viewBox="0 0 24 24" fill="none" xmlns="http://www.w3.org/2000/svg">
  <rect width="24" height="24" fill="white"/>
  <path d="M4 2v20l2-1 2 1 2-1 2 1 2-1 2 1 2-1 2 1V2l-2 1-2-1-2 1-2-1-2 1-2-1-2 1Z" stroke="#00A651" stroke-width="2" stroke-linecap="round" stroke-linejoin="round"/>
  <path d="M16 8h-6a2 2 0 1 0 0 4h4a2 2 0 1 1 0 4H8" stroke="#00A651" stroke-width="2" stroke-linecap="round" stroke-linejoin="round"/>
  <path d="M12 17.5v-11" stroke="#00A651" stroke-width="2" stroke-linecap="round" stroke-linejoin="round"/>
</svg>